<svg width="286" height="330" viewBox="0 0 286 330" fill="none" xmlns="http://www.w3.org/2000/svg">
<path d="M89 86.5L117.5 91L143 108.5V315.5L130 330H80L23.5 288.5L0.5 218.5V142L41.5 91L89 86.5Z" fill="#EB0B0B"/>
<path d="M197 86L168.5 90.5092L143 108.045V315.47L156 330H206L262.5 288.415L285.5 218.271V141.614L244.5 90.5092L197 86Z" fill="#EB0B0B"/>
<path d="M132.5 75.5L136.5 105.5L145.5 109.5L143 75.5L168.5 51.5L154 33L132.5 75.5Z" fill="#824600"/>
<path d="M129 27L137.5 65.5L135.5 70H135L104 65.5L72 50.5L58.5 27H27L61.5 0H93.5L129 27Z" fill="#3BD006"/>
<path d="M47 99L89 94.5L113 145L100.5 205.5L42 237.5L47 268.5L81 319L30.5 279.5L12 216V145L47 99Z" fill="#FFF174" fill-opacity="0.29"/>
<path d="M239.5 100L200 95.5L235 107L251.5 148V207L207 230.5L173 275.5L157.5 319H162H207L259 279.5L278 215L274 141.5L239.5 100Z" fill="#4F0D0D" fill-opacity="0.35"/>
<path d="M118.5 37.5L136.5 68L113.5 40.5L86 25.5L65.5 15.5L42 20L65.5 11L85 12.5L118.5 37.5Z" fill="#2A771E" fill-opacity="0.78"/>
<path d="M140.5 73L162.5 44.5V44L168.5 51.5L143 75.5L145.5 109.5L140 107L140.5 73Z" fill="#271500" fill-opacity="0.57"/>
</svg>
